<?xml version="1.0" standalone="no"?>
<!DOCTYPE svg PUBLIC "-//W3C//DTD SVG 20010904//EN"
 "http://www.w3.org/TR/2001/REC-SVG-20010904/DTD/svg10.dtd">
<svg version="1.0" xmlns="http://www.w3.org/2000/svg"
 width="1000.000000pt" height="1000.000000pt" viewBox="0 0 1000.000000 1000.000000"
 preserveAspectRatio="xMidYMid meet">

<g transform="translate(0.000000,1000.000000) scale(0.100000,-0.100000)"
fill="#000000" stroke="none">
<path d="M0 5000 l0 -5000 5000 0 5000 0 0 5000 0 5000 -5000 0 -5000 0 0
-5000z m4965 3516 c91 -24 133 -53 180 -126 22 -34 47 -121 50 -170 1 -17 7
-25 20 -25 13 0 20 8 21 25 1 14 10 89 20 168 17 135 19 143 39 138 11 -3 51
-8 88 -12 42 -4 71 -12 74 -20 3 -7 -2 -64 -10 -126 -19 -152 -18 -173 14
-173 13 -1 23 -6 22 -11 -1 -6 4 -11 12 -11 8 0 13 5 12 11 -1 5 12 10 28 10
17 0 29 -5 28 -10 -1 -6 4 -11 12 -11 8 0 13 5 12 11 -1 5 12 10 28 10 17 0
29 -5 28 -10 -1 -6 4 -11 12 -11 8 0 13 5 12 11 -1 5 12 10 29 11 33 0 74 29
74 51 0 7 4 14 8 16 5 2 34 40 65 84 l57 82 91 -23 c50 -13 92 -25 95 -27 2
-2 7 -36 10 -76 4 -44 11 -69 17 -65 6 4 7 1 1 -8 -13 -21 -13 -39 -1 -36 7 1
11 -3 10 -9 -1 -6 4 -11 12 -11 8 0 13 5 12 11 -1 5 12 10 28 10 17 0 29 -5
28 -10 -1 -6 4 -11 12 -11 8 0 13 5 12 11 -1 5 12 10 28 11 44 1 59 13 43 33
-9 11 -9 14 -1 9 8 -5 18 4 29 25 9 18 18 34 19 36 1 1 24 -7 51 -19 100 -42
154 -71 150 -78 -3 -4 9 -7 27 -7 18 1 31 -4 30 -10 -1 -6 4 -11 12 -11 8 0
13 5 12 11 -1 5 12 10 28 10 17 0 29 -5 28 -10 -1 -6 4 -11 12 -11 8 0 13 5
12 11 -1 5 12 10 28 10 17 0 29 -5 28 -10 -1 -6 4 -11 12 -11 8 0 13 5 12 11
-1 5 12 10 28 10 17 0 29 -5 28 -10 -1 -6 4 -11 12 -11 8 0 13 5 12 11 -1 5
12 10 28 10 17 0 29 -5 28 -10 -1 -6 4 -11 12 -11 8 0 13 5 12 11 -1 5 12 10
28 10 17 0 29 -5 28 -10 -1 -6 4 -11 12 -11 8 0 13 5 12 11 -1 5 8 10 20 11
12 0 24 2 26 5 3 3 -111 5 -254 5 -226 0 -262 2 -275 16 -12 14 -12 16 0 16 8
0 14 -3 13 -6 -1 -3 3 -6 8 -6 6 0 9 3 8 6 -1 3 4 6 12 6 8 0 13 -3 12 -6 -1
-3 3 -6 8 -6 6 0 9 3 8 6 -1 3 4 6 12 6 8 0 13 -3 12 -6 -1 -3 3 -6 8 -6 6 0
9 3 8 6 -1 3 4 6 12 6 8 0 13 -3 12 -6 -1 -3 3 -6 8 -6 6 0 9 3 8 6 -1 3 4 6
12 6 8 0 13 -3 12 -6 -1 -3 3 -6 8 -6 6 0 9 3 8 6 -1 3 4 6 12 6 8 0 13 -3 12
-6 -1 -3 3 -6 8 -6 6 0 9 3 8 6 -1 3 4 6 12 6 8 0 13 -3 12 -6 -1 -3 3 -6 8
-6 6 0 9 3 8 6 -1 3 4 6 12 6 8 0 13 -3 12 -6 -1 -3 3 -6 8 -6 6 0 9 3 8 6 -1
3 4 6 12 6 8 0 13 -3 12 -6 -1 -3 3 -6 8 -6 6 0 9 3 8 6 -1 3 4 6 12 6 8 0 13
-3 12 -6 -1 -3 3 -6 8 -6 6 0 9 3 8 6 -1 3 4 6 12 6 8 0 13 -3 12 -6 -1 -3 3
-6 8 -6 6 0 9 3 8 6 -1 3 4 6 12 6 8 0 13 -3 12 -6 -1 -3 3 -6 8 -6 6 0 9 3 8
6 -1 3 4 6 12 6 8 0 13 -3 12 -6 -1 -3 3 -6 8 -6 6 0 9 5 7 10 -2 6 8 -1 23
-15 15 -14 29 -23 31 -22 3 2 15 -3 27 -12 12 -9 54 -38 94 -66 324 -225 676
-580 921 -930 633 -902 842 -2051 571 -3132 -277 -1103 -1031 -2023 -2062
-2518 -809 -388 -1717 -479 -2598 -260 -264 66 -523 163 -789 296 -934 469
-1638 1308 -1945 2319 -173 570 -207 1228 -94 1825 169 892 658 1698 1381
2279 101 81 255 191 267 191 5 0 14 7 21 15 7 9 15 13 18 10 3 -3 14 3 24 12
11 10 18 13 16 8 -2 -6 2 -10 7 -10 6 0 9 3 8 6 -1 3 4 6 12 6 8 0 13 -3 12
-6 -1 -3 3 -6 8 -6 6 0 9 3 8 6 -1 3 4 6 12 6 8 0 13 -3 12 -6 -1 -3 2 -6 8
-6 5 0 9 3 8 6 -1 3 4 6 12 6 8 0 13 -3 12 -6 -1 -3 3 -6 8 -6 5 0 9 3 8 6 -1
3 4 6 12 6 8 0 13 -3 12 -6 -1 -3 3 -6 8 -6 5 0 9 3 8 6 -1 3 4 6 12 6 8 0 13
-3 12 -6 -1 -3 3 -6 8 -6 6 0 9 3 8 6 -1 3 4 6 12 6 8 0 13 -3 12 -6 -1 -3 2
-6 8 -6 5 0 9 3 8 6 -1 3 4 6 12 6 8 0 13 -3 12 -6 -1 -3 3 -6 8 -6 5 0 9 3 8
6 -1 3 4 6 12 6 8 0 13 -3 12 -6 -1 -3 3 -6 8 -6 5 0 9 3 8 6 -1 3 4 6 12 6 8
0 13 -3 12 -6 -1 -3 3 -6 8 -6 5 0 9 3 8 6 -1 3 4 6 12 6 8 0 13 -3 12 -6 -1
-3 3 -6 8 -6 5 0 9 3 8 6 -1 3 4 6 12 6 8 0 13 -3 12 -6 -1 -3 3 -6 8 -6 6 0
9 3 8 6 -1 3 5 6 13 6 7 0 12 -3 9 -5 -3 -3 -1 -10 4 -16 7 -8 -64 -11 -261
-11 -148 0 -272 -3 -275 -8 -2 -4 1 -6 9 -5 7 2 12 -2 11 -8 -1 -6 4 -11 12
-11 8 0 13 5 12 11 -1 5 12 10 28 10 17 0 29 -5 28 -10 -1 -6 4 -11 12 -11 8
0 13 5 12 11 -1 5 12 10 28 10 17 0 29 -5 28 -10 -1 -6 4 -11 12 -11 8 0 13 5
12 11 -1 5 12 10 28 10 17 0 29 -5 28 -10 -1 -6 4 -11 12 -11 8 0 13 5 12 11
-1 5 12 10 28 10 17 0 29 -5 28 -10 -1 -6 4 -11 12 -11 8 0 13 5 12 11 -1 5
12 10 28 10 17 0 29 -5 28 -10 -1 -6 4 -11 12 -11 8 0 13 5 12 11 -1 5 12 10
28 10 17 0 29 -5 28 -10 -1 -6 4 -11 12 -11 8 0 13 5 12 11 -1 5 3 10 10 11 6
0 22 9 35 20 83 73 252 101 336 57 23 -12 42 -20 42 -17 0 2 16 -10 35 -28 19
-18 45 -32 58 -32 12 -1 21 -6 20 -11 -1 -6 4 -11 11 -11 14 0 15 34 2 56 -6
9 -5 12 2 7 7 -4 15 8 22 32 33 123 156 202 314 202 85 0 157 -29 201 -81 26
-32 75 -124 79 -152 1 -7 4 -16 7 -22 4 -5 5 -17 4 -26 -2 -9 3 -16 11 -16 7
0 12 5 11 11 -1 6 3 10 9 9 9 -2 11 41 7 158 -5 130 -3 163 8 170 22 14 258
10 314 -5z m-1485 -281 c0 -2 -6 -8 -13 -14 -10 -8 -14 -7 -14 2 0 8 6 14 14
14 7 0 13 -1 13 -2z m437 -6 c-1 -4 3 -6 8 -5 6 0 9 4 8 7 -1 3 4 6 12 6 8 0
13 -5 12 -11 -1 -6 3 -10 9 -9 6 1 11 -5 11 -12 0 -9 -4 -11 -11 -6 -6 5 -19
7 -28 6 -9 -2 -24 5 -32 14 -14 15 -14 18 -2 18 8 0 14 -4 13 -8z m719 -6 c-4
-26 -22 -34 -22 -10 0 13 5 24 12 24 6 0 11 -6 10 -14z m590 -7 c1 -7 -4 -13
-12 -13 -9 0 -11 4 -4 12 5 7 8 15 5 18 -3 4 -2 5 2 2 4 -3 8 -11 9 -19z m251
13 c-1 -4 3 -6 8 -5 6 0 9 4 8 7 -1 3 4 6 12 6 8 0 13 -3 12 -6 -1 -3 3 -6 8
-6 6 0 9 3 8 6 -1 3 4 6 12 6 8 0 13 -4 12 -8 -1 -4 3 -7 8 -7 6 0 9 3 8 7 -1
4 4 8 12 8 8 0 13 -4 12 -8 -1 -4 3 -7 8 -7 6 0 9 3 8 7 -1 4 4 8 12 8 8 0 13
-4 12 -8 -1 -4 3 -6 8 -5 6 0 9 4 8 7 -1 3 4 6 12 6 8 0 13 -3 12 -6 -1 -3 3
-6 8 -6 6 0 9 3 8 6 -1 3 4 6 12 6 8 0 13 -3 12 -6 -1 -3 3 -6 8 -6 6 0 9 3 8
6 -1 3 5 6 13 6 12 0 12 -3 -1 -17 -10 -11 -28 -16 -46 -15 -16 1 -32 -1 -35
-6 -3 -5 -11 -6 -17 -2 -17 11 -57 11 -63 1 -3 -4 -11 -5 -17 -1 -17 11 -50
11 -64 1 -6 -5 -14 -5 -17 1 -4 5 -16 8 -27 6 -16 -3 -18 -1 -10 9 6 7 9 15 6
18 -3 2 2 5 9 5 8 0 14 -4 13 -8z m680 0 c-1 -4 3 -6 8 -5 6 0 9 4 8 7 -1 3 4
6 12 6 8 0 13 -3 12 -6 -1 -3 3 -6 8 -6 6 0 9 3 8 6 -1 3 4 6 12 6 8 0 13 -4
12 -8 -1 -4 3 -7 8 -7 6 0 9 3 8 7 -1 4 4 8 12 8 8 0 13 -5 12 -11 -1 -6 4
-10 11 -8 8 1 11 -2 8 -7 -3 -5 -19 -7 -36 -6 -17 1 -33 -2 -36 -7 -3 -5 -11
-5 -17 0 -14 10 -47 10 -63 -1 -7 -4 -18 0 -25 9 -10 12 -10 15 2 12 8 -2 13
2 12 8 -1 6 4 11 12 11 8 0 13 -4 12 -8z"/>
<path d="M4755 8493 l-80 -4 2 -142 c2 -78 6 -207 9 -286 l6 -144 122 6 c150
6 204 24 266 86 56 56 76 115 73 217 -2 113 -50 197 -137 238 -36 17 -137 38
-166 34 -8 -1 -51 -4 -95 -5z m227 -142 c52 -57 63 -167 26 -241 -28 -54 -64
-76 -139 -85 l-56 -7 -6 114 c-4 62 -7 145 -7 185 l0 72 33 3 c62 6 120 -10
149 -41z"/>
<path d="M4834 8319 c4 -24 7 -67 9 -95 1 -31 6 -51 14 -51 6 0 11 5 10 11 -1
5 12 10 28 10 17 0 29 -5 28 -10 -1 -6 4 -11 12 -11 8 0 13 5 12 11 -1 6 8 11
19 10 22 -1 25 10 10 35 -7 10 -6 12 4 6 24 -15 3 67 -24 93 -17 18 -39 26
-76 30 l-52 5 6 -44z m43 -90 c-1 -4 3 -6 8 -5 6 0 9 4 8 7 -1 3 4 6 12 6 8 0
13 -3 12 -6 -1 -3 3 -6 8 -6 6 0 9 3 8 6 -1 3 4 6 12 6 8 0 13 -5 12 -11 -1
-6 4 -10 11 -8 8 1 11 -2 7 -8 -3 -6 -10 -8 -15 -5 -5 3 -12 1 -15 -5 -4 -7
-12 -7 -18 -2 -14 10 -47 10 -62 0 -7 -4 -11 3 -11 16 0 12 6 23 12 23 7 0 12
-4 11 -8z"/>
<path d="M5270 8210 c-18 -154 -31 -283 -28 -285 3 -3 92 -16 199 -30 107 -13
208 -28 226 -33 31 -10 32 -9 68 49 20 32 39 59 43 59 17 0 178 -44 186 -51 5
-5 12 -39 15 -76 l6 -67 50 -13 c28 -7 55 -13 60 -13 9 0 -21 475 -37 581 -2
19 -14 26 -73 40 -38 10 -73 15 -76 11 -3 -4 -64 -92 -135 -197 -70 -104 -141
-208 -156 -229 -28 -39 -28 -39 -22 -9 6 29 4 30 -33 36 -21 4 -71 9 -111 13
-40 4 -75 10 -77 14 -2 4 8 109 22 233 15 124 25 228 23 230 -3 2 -30 7 -61
10 l-55 7 -34 -280z m699 -102 c1 -43 -2 -78 -6 -78 -5 0 -36 8 -70 18 l-62
17 62 102 62 101 7 -41 c3 -23 7 -77 7 -119z"/>
<path d="M4215 8426 c-141 -45 -207 -143 -192 -287 7 -67 35 -145 71 -199 97
-147 397 -104 461 65 27 69 17 201 -20 283 -58 129 -181 182 -320 138z m152
-112 c47 -30 91 -167 78 -245 -13 -78 -90 -130 -171 -115 -72 14 -130 132
-122 248 4 49 9 64 35 89 48 48 125 58 180 23z"/>
<path d="M4232 8284 c-12 -8 -20 -20 -16 -25 3 -5 0 -8 -7 -7 -7 2 -14 -3 -15
-9 -1 -7 -2 -14 -4 -15 -8 -11 -6 -37 3 -35 7 1 11 -3 10 -9 -1 -6 4 -11 12
-11 8 0 13 5 12 11 -1 5 12 10 28 10 17 0 29 -5 28 -10 -1 -6 4 -11 12 -11 8
0 13 5 12 11 -1 5 12 10 28 10 17 0 29 -5 28 -10 -1 -6 4 -11 12 -11 8 0 12 4
9 8 -2 4 0 11 6 14 8 5 7 12 -2 22 -6 8 -13 22 -15 31 -6 46 -95 69 -141 36z
m5 -55 c-1 -4 3 -6 8 -5 6 0 9 4 8 7 -1 3 4 6 12 6 8 0 13 -3 12 -6 -1 -3 3
-6 8 -6 6 0 9 3 8 6 -1 3 4 6 12 6 8 0 13 -4 12 -8 -1 -4 3 -7 8 -7 6 0 9 3 8
7 -1 4 4 8 12 8 8 0 13 -5 12 -11 -1 -5 4 -11 11 -12 22 -3 23 -4 17 -14 -4
-6 -12 -7 -18 -3 -17 11 -57 11 -63 1 -3 -5 -11 -5 -17 0 -14 10 -47 10 -63
-1 -7 -4 -18 0 -25 9 -10 12 -10 15 2 12 8 -2 13 2 12 8 -1 6 4 11 12 11 8 0
13 -4 12 -8z"/>
<path d="M3601 8244 c-92 -33 -159 -91 -181 -160 -17 -50 -8 -157 19 -225 24
-64 88 -141 135 -166 126 -66 325 7 380 139 43 102 -5 281 -100 370 -61 57
-162 74 -253 42z m138 -108 c50 -28 111 -154 111 -230 0 -100 -135 -167 -217
-108 -40 29 -92 131 -99 197 -7 63 17 111 66 137 40 21 105 23 139 4z"/>
<path d="M6345 8218 c-7 -18 -59 -132 -114 -252 -56 -121 -101 -222 -101 -226
0 -7 91 -53 95 -48 5 5 98 211 135 301 l37 88 6 -38 c3 -21 14 -132 23 -247
l18 -209 65 -29 c35 -16 68 -27 74 -25 9 3 237 491 237 507 0 4 -21 17 -47 28
l-48 21 -41 -87 c-22 -48 -60 -133 -85 -190 -53 -123 -50 -128 -73 143 -9 105
-19 200 -22 212 -3 16 -23 33 -64 53 -33 16 -64 30 -70 30 -6 0 -17 -15 -25
-32z"/>
<path d="M7083 8185 c0 -6 6 -12 12 -12 6 0 12 6 12 12 0 6 -6 12 -12 12 -6 0
-12 -6 -12 -12z"/>
<path d="M3145 8016 c-96 -30 -180 -93 -222 -164 -24 -40 -28 -58 -28 -122 0
-66 4 -82 34 -138 119 -219 299 -242 490 -64 l62 57 -78 127 -77 127 -46 -26
c-25 -15 -69 -42 -97 -60 l-53 -34 26 -39 c15 -22 29 -40 31 -40 2 0 24 11 48
25 l43 26 27 -47 c33 -56 29 -67 -36 -102 -82 -44 -162 -10 -221 95 -46 81
-38 174 19 225 25 23 103 58 131 58 24 0 28 19 16 79 -7 34 -11 35 -69 17z"/>
<path d="M6826 7709 c-87 -127 -155 -234 -150 -238 29 -26 147 -103 194 -127
79 -40 175 -40 242 -2 25 16 62 47 82 70 100 116 112 246 33 350 -30 40 -210
177 -232 177 -5 0 -81 -103 -169 -230z m258 51 c53 -40 76 -77 76 -123 0 -78
-89 -196 -158 -212 -17 -3 -47 -2 -68 4 -38 11 -104 51 -104 64 0 11 200 297
208 297 4 0 25 -14 46 -30z"/>
<path d="M4765 7574 c-130 -9 -398 -63 -525 -105 -429 -141 -768 -347 -1072
-653 -198 -198 -353 -416 -478 -671 -128 -260 -199 -483 -242 -760 -26 -169
-31 -547 -9 -705 78 -570 314 -1062 699 -1462 372 -386 831 -641 1332 -743
215 -43 287 -50 530 -50 243 0 315 7 530 50 316 64 635 199 909 385 844 572
1270 1564 1105 2570 -131 795 -649 1502 -1369 1867 -245 124 -470 201 -710
243 -38 6 -90 16 -115 22 -45 10 -490 19 -585 12z m-380 -1113 c66 -30 120
-108 160 -231 10 -30 28 -77 40 -105 13 -27 37 -81 55 -120 42 -93 90 -145 90
-97 0 36 62 142 105 179 38 35 255 150 313 168 36 11 72 -11 129 -77 37 -42
62 -84 84 -141 59 -154 58 -248 -5 -449 -47 -152 -88 -200 -237 -278 -111 -59
-119 -69 -119 -151 0 -27 -9 -72 -20 -101 -19 -50 -20 -67 -14 -265 7 -207 8
-213 28 -214 21 0 20 -1 -1 -11 -14 -7 -23 -20 -23 -34 0 -12 -3 -29 -6 -38
-3 -9 -1 -16 5 -16 6 0 26 30 44 68 19 37 46 84 60 106 34 49 42 95 27 142
-19 57 -16 163 5 208 10 21 55 74 99 119 67 68 99 92 191 139 105 54 115 57
220 68 61 5 153 15 205 21 142 16 254 -15 282 -77 16 -35 -15 -92 -92 -172
-49 -50 -70 -64 -127 -82 -292 -96 -617 -262 -710 -363 -55 -61 -132 -204
-157 -292 -29 -99 -37 -108 -33 -35 3 58 1 69 -22 97 -14 18 -29 33 -32 33
-15 0 -29 -54 -23 -91 5 -31 2 -46 -17 -74 -13 -19 -26 -35 -29 -35 -3 0 -41
72 -85 161 -44 89 -93 176 -110 194 -30 33 -155 104 -266 150 -31 14 -142 47
-245 74 -249 66 -318 94 -383 159 -28 28 -51 55 -51 59 0 4 38 8 84 8 47 1 82
-3 80 -7 -3 -4 -12 -8 -21 -8 -10 0 -13 -6 -9 -16 4 -9 2 -22 -4 -29 -9 -11 1
-15 47 -21 42 -5 90 -1 178 15 126 22 157 24 190 12 15 -6 3 -15 -62 -41 -122
-50 -87 -69 58 -30 90 24 123 25 139 5 11 -13 7 -18 -28 -32 -61 -23 -41 -36
44 -28 72 7 87 2 63 -22 -15 -15 2 -32 61 -58 48 -22 100 -61 100 -76 0 -5 -9
-13 -20 -17 -17 -6 -13 -12 32 -45 l51 -38 -6 35 c-6 40 -69 136 -118 182 -60
56 -154 113 -278 169 -66 30 -128 55 -136 55 -9 0 -48 14 -88 31 -69 30 -109
43 -227 75 -30 9 -84 27 -119 41 -49 19 -75 24 -108 19 -48 -6 -47 -7 -32 28
13 29 118 83 219 114 36 10 120 27 188 37 118 18 127 18 225 0 109 -19 129
-25 337 -113 170 -71 214 -108 262 -222 18 -44 36 -80 39 -80 10 0 -6 58 -36
130 -15 36 -49 127 -76 204 -57 162 -76 196 -162 293 -36 39 -89 109 -119 155
-220 334 -237 366 -251 484 -9 77 -9 84 17 140 15 32 32 62 39 66 21 13 70 8
112 -11z m-779 -1942 c41 -31 74 -82 74 -111 0 -9 11 -39 25 -66 14 -28 25
-57 25 -65 0 -18 -37 -47 -59 -47 -20 0 -61 40 -61 60 0 9 -15 40 -34 70 -29
45 -45 60 -98 85 -53 25 -63 34 -66 59 -5 38 10 46 89 46 59 0 71 -3 105 -31z
m2314 -444 c8 -17 24 -43 36 -60 17 -24 19 -36 12 -62 -6 -25 -12 -30 -29 -26
-15 4 -17 8 -8 14 11 6 8 13 -9 32 -12 13 -22 29 -22 35 0 7 -7 15 -15 18 -9
4 -14 13 -13 22 4 19 -42 24 -49 5 -3 -7 -13 -13 -23 -13 -23 0 -34 -28 -19
-46 6 -8 42 -29 80 -47 38 -17 69 -35 69 -38 0 -12 -40 -18 -77 -12 -24 4 -37
13 -44 30 -5 13 -20 28 -34 33 -19 7 -25 17 -25 40 0 16 5 30 10 30 6 0 10 11
10 23 0 68 118 84 150 22z m-416 -21 c24 -9 19 -24 -8 -24 -28 0 -43 16 -24
23 7 3 14 6 15 6 1 1 8 -2 17 -5z m136 -64 c0 -23 -10 -26 -28 -8 -18 18 -15
28 8 28 13 0 20 -7 20 -20z m65 -20 c-3 -5 -10 -10 -16 -10 -5 0 -9 5 -9 10 0
6 7 10 16 10 8 0 12 -4 9 -10z m562 -117 c-9 -9 -19 -14 -23 -11 -10 10 6 28
24 28 15 0 15 -1 -1 -17z m-2198 -44 c28 -27 20 -37 -13 -15 -14 9 -27 12 -31
7 -3 -6 -22 -7 -43 -4 -34 6 -36 5 -23 -11 17 -21 16 -22 -41 -30 -54 -8 -63
3 -18 22 17 8 30 20 30 27 0 13 25 19 91 23 14 1 35 -7 48 -19z m1324 4 c11
-10 -13 -33 -34 -33 -18 0 -26 20 -12 33 8 9 38 9 46 0z m-1228 -53 c0 -22
-37 -25 -52 -4 -20 27 -16 32 20 25 18 -4 32 -13 32 -21z m141 -1 c3 -6 1 -16
-5 -22 -13 -13 -65 8 -56 23 8 13 52 13 61 -1z m-605 -62 c61 -59 62 -63 29
-101 -17 -18 -30 -40 -31 -47 0 -8 -5 -3 -10 11 -10 24 -11 24 -24 7 -13 -18
-14 -17 -31 10 -9 15 -25 40 -35 55 -25 36 -24 63 4 76 36 18 73 14 98 -11z
m829 3 c0 -5 -5 -10 -11 -10 -5 0 -7 5 -4 10 3 6 8 10 11 10 2 0 4 -4 4 -10z
m-645 -31 c9 -17 14 -33 11 -36 -11 -11 -100 -23 -109 -14 -13 13 9 48 41 65
37 21 39 20 57 -15z m2670 22 c3 -5 1 -13 -5 -16 -15 -9 -43 3 -35 15 8 13 32
13 40 1z m205 -5 c0 -11 -19 -15 -25 -6 -3 5 1 10 9 10 9 0 16 -2 16 -4z
m-3471 -26 c24 -11 49 -20 57 -20 25 0 25 -20 -1 -30 -15 -6 -29 -18 -32 -28
-5 -21 -42 -47 -51 -37 -4 4 1 13 11 20 17 12 16 14 -15 20 -62 12 -68 16 -68
40 0 60 25 68 99 35z m3356 -20 c3 -5 1 -10 -4 -10 -6 0 -11 5 -11 10 0 6 2
10 4 10 3 0 8 -4 11 -10z m-2145 -28 c0 -4 -18 -7 -40 -7 -22 0 -40 3 -40 7 0
5 18 8 40 8 22 0 40 -3 40 -8z m-640 -26 c0 -11 -19 -15 -25 -6 -3 5 1 10 9
10 9 0 16 -2 16 -4z m1370 -6 c0 -5 -11 -10 -25 -10 -14 0 -25 5 -25 10 0 6
11 10 25 10 14 0 25 -4 25 -10z m-470 -10 c8 -5 11 -12 8 -16 -10 -9 -38 3
-38 16 0 12 10 13 30 0z m-975 -10 c3 -5 1 -10 -4 -10 -6 0 -11 5 -11 10 0 6
2 10 4 10 3 0 8 -4 11 -10z m1454 -24 c-17 -15 -69 -35 -69 -26 0 6 10 15 23
20 22 9 54 13 46 6z m-1086 -121 c10 -14 14 -25 9 -25 -6 0 -17 11 -26 25 -21
32 -7 32 17 0z m2562 5 c-14 -23 -171 -77 -185 -64 -7 8 23 24 46 24 25 0 110
36 119 50 4 6 11 8 16 4 5 -3 7 -9 4 -14z m-1620 -10 c3 -5 1 -10 -4 -10 -6 0
-11 5 -11 10 0 6 2 10 4 10 3 0 8 -4 11 -10z m-827 -47 c5 -18 -39 -17 -64 2
-18 13 -16 14 20 12 22 -1 41 -8 44 -14z"/>
<path d="M4250 6324 c-17 -52 -6 -92 67 -237 60 -120 73 -138 170 -239 103
-105 143 -136 108 -82 -9 14 -14 28 -11 31 3 3 8 -2 12 -11 9 -22 29 -20 54 6
25 27 25 38 0 45 -11 3 -20 10 -20 15 0 6 -7 26 -16 45 -13 25 -14 37 -5 46 6
6 11 22 10 36 -1 24 -1 24 -10 -5 -5 -18 -16 -35 -25 -38 -12 -5 -14 -1 -8 17
10 32 9 42 -11 86 -14 33 -21 39 -35 31 -14 -8 -17 -3 -17 36 0 49 -13 70 -37
61 -21 -8 -20 -56 1 -87 10 -14 18 -38 19 -55 l2 -29 -13 25 c-8 14 -23 54
-35 90 -12 35 -28 78 -36 96 -8 17 -14 34 -14 37 0 15 -63 105 -70 101 -5 -3
-11 -1 -15 5 -3 5 -17 10 -30 10 -18 0 -26 -8 -35 -36z m291 -417 c-7 -7 -13
-2 -21 17 -14 38 -13 39 11 15 15 -15 18 -24 10 -32z"/>
<path d="M4445 6200 c-3 -5 1 -10 9 -10 9 0 16 5 16 10 0 6 -4 10 -9 10 -6 0
-13 -4 -16 -10z"/>
<path d="M4630 5740 c0 -19 5 -25 23 -27 21 -4 23 23 1 31 -21 8 -24 8 -24 -4z"/>
<path d="M4756 5580 c4 -19 8 -64 9 -100 1 -50 10 -85 37 -150 58 -140 102
-229 114 -230 5 0 16 33 23 73 l13 72 -45 68 c-39 59 -74 126 -142 267 l-16
35 7 -35z"/>
<path d="M3813 5248 c-2 -26 12 -38 45 -38 12 0 22 -4 22 -10 0 -5 12 -13 28
-16 15 -4 38 -12 52 -20 14 -7 46 -18 73 -25 26 -6 50 -16 53 -20 3 -5 15 -9
26 -9 11 0 39 -9 62 -19 23 -10 82 -34 131 -52 85 -32 167 -75 262 -140 23
-16 48 -26 57 -23 10 4 17 -2 22 -20 8 -33 42 -54 55 -35 17 27 21 61 10 85
-6 14 -11 34 -11 45 0 21 -146 179 -166 179 -7 0 -19 6 -26 14 -27 27 -99 57
-119 51 -14 -5 -27 0 -39 13 -20 22 -155 41 -172 24 -5 -5 -31 -7 -58 -4 -46
4 -50 3 -60 -22 -12 -31 -26 -34 -33 -5 -3 12 -11 19 -19 16 -7 -2 -28 4 -45
15 -21 12 -40 17 -54 13 -12 -4 -24 -3 -28 3 -3 5 -20 12 -36 16 -27 6 -31 4
-32 -16z"/>
<path d="M4889 5028 c-3 -42 1 -93 12 -138 26 -111 32 -131 39 -119 4 6 6 19
5 28 -2 9 -4 69 -4 134 l-1 117 -25 0 c-19 0 -25 -6 -26 -22z"/>
<path d="M4866 4958 c-2 -7 -9 -33 -16 -58 -6 -25 -30 -73 -51 -107 -36 -54
-40 -69 -41 -125 -1 -58 3 -70 52 -155 29 -51 55 -93 59 -93 4 0 5 28 3 63 -3
47 -9 65 -23 76 -19 13 -18 14 6 37 25 23 25 24 25 199 0 158 -4 200 -14 163z"/>
<path d="M2590 7433 c-8 -3 -30 -19 -47 -36 -28 -26 -33 -38 -33 -75 0 -39 5
-50 44 -88 33 -34 51 -44 75 -44 67 0 121 50 121 112 0 77 -95 154 -160 131z"/>
<path d="M7505 7293 c-32 -8 -84 -51 -101 -85 -23 -44 -11 -90 32 -127 58 -51
129 -36 179 36 30 45 32 77 5 121 -16 26 -78 67 -92 61 -2 -1 -12 -4 -23 -6z"/>
<path d="M1748 4785 c-127 -32 -223 -109 -248 -200 -21 -74 -8 -204 30 -307
17 -49 35 -88 38 -88 10 0 347 52 349 55 3 2 -38 259 -42 263 -2 2 -29 0 -60
-3 l-56 -7 7 -68 6 -67 -47 -6 c-89 -13 -91 -12 -104 37 -33 130 19 210 156
242 111 26 177 12 239 -50 51 -51 71 -126 56 -212 -5 -30 -6 -56 -3 -58 16 -9
113 -28 117 -23 3 3 8 41 11 84 13 184 -63 337 -196 396 -59 26 -176 32 -253
12z"/>
<path d="M8090 4769 c-44 -18 -80 -61 -96 -117 -20 -67 -13 -123 22 -174 l24
-38 -29 0 c-16 0 -33 -6 -38 -12 -16 -20 -23 -99 -10 -103 7 -2 122 -20 256
-40 177 -26 246 -32 251 -24 10 15 22 120 15 127 -3 3 -62 14 -132 24 -160 23
-196 33 -230 62 -23 20 -28 32 -28 71 0 37 5 51 24 66 30 24 62 24 245 -2 116
-17 150 -19 156 -9 8 13 23 121 17 126 -7 7 -349 54 -385 53 -21 0 -48 -5 -62
-10z"/>
<path d="M7980 4157 c-82 -26 -160 -151 -160 -255 0 -65 40 -143 93 -182 51
-37 152 -70 216 -70 100 0 194 77 226 184 31 103 14 171 -59 242 -83 80 -213
114 -316 81z m187 -163 c77 -37 98 -84 67 -149 -29 -61 -99 -69 -206 -23 -80
34 -102 76 -77 147 23 66 111 77 216 25z"/>
<path d="M1855 4064 c-115 -41 -220 -78 -232 -84 l-23 -9 22 -58 c12 -32 24
-61 28 -65 3 -5 64 13 135 38 140 49 191 56 230 30 26 -17 65 -84 65 -111 0
-11 6 -15 18 -11 9 3 38 10 65 17 36 9 47 16 47 31 0 46 -49 105 -114 136
l-38 19 37 23 c30 18 35 27 31 46 -13 52 -26 74 -43 73 -10 -1 -112 -34 -228
-75z"/>
<path d="M7511 3724 c-39 -50 -22 -111 35 -128 44 -13 101 63 83 111 -18 48
-86 58 -118 17z"/>
<path d="M2087 3699 c-48 -11 -126 -51 -165 -84 -45 -38 -82 -119 -82 -179 0
-114 91 -234 195 -257 115 -26 268 52 327 166 63 120 -23 311 -156 350 -55 17
-64 17 -119 4z m116 -140 c58 -26 74 -108 30 -160 -31 -36 -134 -89 -175 -89
-37 0 -86 44 -94 84 -11 62 46 125 145 161 45 17 64 18 94 4z"/>
<path d="M7679 3609 c-16 -34 -29 -62 -27 -64 7 -6 444 -230 453 -233 10 -2
65 98 65 118 0 8 -438 240 -454 240 -3 0 -20 -27 -37 -61z"/>
<path d="M7564 3405 c-20 -30 -40 -55 -43 -55 -4 0 -23 11 -43 25 -20 14 -41
25 -45 25 -4 0 -18 -16 -31 -36 l-23 -35 36 -50 c32 -45 35 -55 30 -93 -6 -39
-4 -44 20 -60 27 -18 28 -18 49 9 l22 27 125 -85 c142 -96 184 -110 244 -81
46 21 125 137 125 182 0 9 -73 62 -84 62 -3 0 -14 -20 -25 -45 -11 -26 -30
-50 -45 -56 -28 -13 -54 -1 -187 93 l-76 53 38 55 c21 30 38 58 39 62 0 8 -70
58 -82 58 -4 0 -24 -25 -44 -55z"/>
<path d="M2312 3085 l-144 -225 30 -37 c16 -21 39 -47 51 -57 25 -23 20 -25
270 110 68 37 120 60 115 53 -4 -8 -59 -85 -122 -171 -78 -109 -111 -162 -105
-172 4 -7 27 -34 51 -60 l42 -46 238 111 c130 61 240 114 244 118 4 4 -13 30
-38 59 l-45 52 -127 -65 c-70 -35 -152 -79 -182 -97 l-55 -32 36 40 c31 35
148 195 192 265 17 25 17 26 -36 84 l-52 58 -112 -57 c-62 -31 -142 -74 -178
-96 l-66 -41 54 68 c61 77 177 248 177 261 0 11 -79 102 -88 102 -4 -1 -72
-102 -150 -225z"/>
<path d="M7311 3055 c-22 -24 -41 -48 -41 -52 0 -5 48 -53 106 -108 117 -109
144 -144 144 -192 0 -46 -43 -93 -85 -93 -39 0 -57 13 -203 151 l-102 97 -50
-51 -50 -52 123 -117 c67 -65 142 -132 167 -149 40 -27 51 -30 102 -27 42 3
65 11 92 31 49 38 89 109 90 162 l1 42 33 -16 33 -15 34 39 c19 22 33 42 32
45 -5 13 -367 350 -375 350 -5 0 -28 -20 -51 -45z"/>
<path d="M2990 2643 c-48 -25 -80 -76 -80 -129 0 -32 12 -66 46 -130 51 -97
55 -137 14 -142 -38 -4 -85 31 -132 97 -24 33 -45 60 -48 60 -3 0 -20 -20 -38
-45 l-33 -44 20 -28 c51 -72 147 -143 220 -162 86 -23 176 40 188 131 5 36 -1
54 -47 144 -54 105 -59 135 -20 135 31 0 68 -28 102 -79 17 -25 33 -48 35 -51
7 -7 93 44 93 56 0 17 -53 85 -94 121 -80 71 -167 96 -226 66z"/>
<path d="M6502 2619 l-53 -41 24 -31 c13 -18 108 -150 211 -294 103 -145 189
-263 192 -263 3 0 24 12 45 28 35 24 39 31 34 58 l-5 32 59 4 c210 15 242 246
59 430 -71 71 -134 94 -205 76 -61 -15 -117 -70 -133 -128 -11 -40 -14 -43
-24 -26 -30 50 -138 196 -144 195 -4 0 -31 -18 -60 -40z m408 -139 c18 0 81
-64 107 -107 52 -90 21 -173 -64 -173 -31 0 -44 8 -83 48 -71 74 -96 143 -69
193 12 23 67 51 87 44 8 -3 18 -5 22 -5z"/>
<path d="M6289 2497 c-42 -28 -50 -71 -19 -105 26 -28 69 -29 103 -2 34 27 41
53 23 88 -25 48 -56 54 -107 19z"/>
<path d="M6383 2319 c-29 -17 -53 -32 -53 -34 0 -4 231 -448 236 -454 7 -7
124 52 124 62 0 21 -232 457 -243 457 -7 0 -36 -14 -64 -31z"/>
<path d="M3583 2239 c-38 -24 -75 -96 -77 -148 -1 -71 63 -131 143 -131 38 0
49 5 81 39 41 43 66 113 56 159 -12 53 -82 102 -144 102 -15 0 -41 -10 -59
-21z"/>
<path d="M4194 2236 c-5 -16 -124 -640 -124 -653 0 -6 52 -21 116 -33 211 -40
339 -19 415 68 99 112 127 304 63 422 -34 63 -70 94 -149 131 -71 33 -315 82
-321 65z m229 -157 c53 -14 104 -62 118 -112 25 -93 -18 -242 -83 -288 -35
-25 -104 -35 -172 -25 -38 6 -46 11 -46 28 0 21 67 382 75 406 5 14 23 12 108
-9z"/>
<path d="M6192 2233 c-36 -18 -67 -56 -84 -104 l-11 -32 -31 36 -31 36 -47
-22 -46 -22 91 -240 c50 -132 91 -241 92 -243 3 -4 118 39 127 47 4 4 -15 66
-42 139 -62 163 -64 200 -16 248 19 19 48 37 65 40 36 7 36 12 16 82 -17 58
-28 62 -83 35z"/>
<path d="M4850 2170 c-11 -11 -20 -33 -20 -50 0 -68 96 -98 139 -44 27 35 26
59 -4 89 -31 32 -86 34 -115 5z"/>
<path d="M5644 2168 c-45 -9 -54 -23 -54 -85 0 -24 -10 -44 -36 -73 -29 -32
-35 -45 -30 -66 6 -23 10 -25 40 -20 l34 6 32 -137 c37 -158 58 -206 100 -228
53 -28 159 -14 224 28 23 15 24 19 13 62 -7 24 -16 45 -22 45 -5 0 -29 -8 -53
-17 -73 -27 -85 -15 -116 119 -39 171 -41 159 31 177 34 9 64 18 67 21 9 10
-16 100 -27 100 -7 0 -37 -7 -67 -15 -69 -19 -70 -19 -71 3 0 9 -6 33 -12 53
-12 35 -12 35 -53 27z"/>
<path d="M5218 1997 c-90 -26 -130 -68 -130 -139 1 -82 31 -121 120 -154 120
-43 152 -62 152 -88 0 -39 -31 -50 -124 -43 -45 3 -92 9 -105 13 -24 7 -24 7
-18 -46 4 -29 11 -58 17 -64 7 -7 53 -11 113 -11 121 0 181 19 227 71 26 30
30 43 30 91 0 62 -23 111 -62 132 -13 6 -64 26 -113 44 -72 26 -91 37 -93 54
-6 42 67 53 178 27 24 -5 27 -1 42 46 l17 51 -27 10 c-44 17 -172 20 -224 6z"/>
<path d="M4826 1799 c-3 -107 -7 -225 -9 -264 l-2 -70 73 -3 72 -3 1 78 c1 43
4 160 8 261 6 177 5 182 -14 182 -11 0 -43 3 -71 6 l-51 6 -7 -193z"/>
</g>
</svg>
